<svg width="100%" viewBox="0 0 680 820" role="img" xmlns="http://www.w3.org/2000/svg">
<title>ShramSuraksha Full System Architecture</title>
<desc>End-to-end architecture of the ShramSuraksha parametric income insurance platform for gig workers, showing frontend PWA, backend API, AI/ML layer, data sources, and admin panel</desc>
<defs>
<marker id="arrow" viewBox="0 0 10 10" refX="8" refY="5" markerWidth="6" markerHeight="6" orient="auto-start-reverse">
<path d="M2 1L8 5L2 9" fill="none" stroke="context-stroke" stroke-width="1.5" stroke-linecap="round" stroke-linejoin="round"/>
</marker>
</defs>

<!-- Layer 1: External Data Sources -->
<g>
<rect x="30" y="30" width="620" height="90" rx="12" fill="#633806" stroke="#ef9f27" stroke-width="0.5"/>
<text x="340" y="52" text-anchor="middle" fill="#fac775" font-size="14" font-weight="500">External data sources</text>
</g>
<g>
<rect x="50" y="64" width="130" height="44" rx="6" fill="#633806" stroke="#ef9f27" stroke-width="0.5"/>
<text x="115" y="82" text-anchor="middle" fill="#fac775" font-size="14" font-weight="500">OpenWeatherMap</text>
<text x="115" y="98" text-anchor="middle" fill="#ef9f27" font-size="12">Rain · Heat · Wind</text>
</g>
<g>
<rect x="200" y="64" width="110" height="44" rx="6" fill="#633806" stroke="#ef9f27" stroke-width="0.5"/>
<text x="255" y="82" text-anchor="middle" fill="#fac775" font-size="14" font-weight="500">CPCB AQI</text>
<text x="255" y="98" text-anchor="middle" fill="#ef9f27" font-size="12">AQI index feed</text>
</g>
<g>
<rect x="326" y="64" width="110" height="44" rx="6" fill="#633806" stroke="#ef9f27" stroke-width="0.5"/>
<text x="381" y="82" text-anchor="middle" fill="#fac775" font-size="14" font-weight="500">IMD alerts</text>
<text x="381" y="98" text-anchor="middle" fill="#ef9f27" font-size="12">Govt weather RSS</text>
</g>
<g>
<rect x="452" y="64" width="110" height="44" rx="6" fill="#633806" stroke="#ef9f27" stroke-width="0.5"/>
<text x="507" y="82" text-anchor="middle" fill="#fac775" font-size="14" font-weight="500">Twilio / Gmail</text>
<text x="507" y="98" text-anchor="middle" fill="#ef9f27" font-size="12">OTP · WhatsApp</text>
</g>
<g>
<rect x="578" y="64" width="62" height="44" rx="6" fill="#633806" stroke="#ef9f27" stroke-width="0.5"/>
<text x="609" y="82" text-anchor="middle" fill="#fac775" font-size="14" font-weight="500">Gemini</text>
<text x="609" y="98" text-anchor="middle" fill="#ef9f27" font-size="12">2.0 Flash</text>
</g>

<!-- Arrow layer 1 → 2 -->
<line x1="340" y1="120" x2="340" y2="148" marker-end="url(#arrow)" stroke="#9c9a92" stroke-width="1.5"/>

<!-- Layer 2: Backend API (Node/Express) -->
<g>
<rect x="30" y="150" width="620" height="110" rx="12" fill="#085041" stroke="#5dCAA5" stroke-width="0.5"/>
<text x="340" y="172" text-anchor="middle" fill="#9FE1CB" font-size="14" font-weight="500">Backend — Node.js + Express (Railway)</text>
</g>
<g>
<rect x="50" y="185" width="100" height="62" rx="6" fill="#085041" stroke="#5dCAA5" stroke-width="0.5"/>
<text x="100" y="204" text-anchor="middle" fill="#9FE1CB" font-size="14" font-weight="500">auth.js</text>
<text x="100" y="220" text-anchor="middle" fill="#5dCAA5" font-size="12">OTP login</text>
<text x="100" y="234" text-anchor="middle" fill="#5dCAA5" font-size="12">JWT tokens</text>
</g>
<g>
<rect x="163" y="185" width="100" height="62" rx="6" fill="#085041" stroke="#5dCAA5" stroke-width="0.5"/>
<text x="213" y="204" text-anchor="middle" fill="#9FE1CB" font-size="14" font-weight="500">policy.js</text>
<text x="213" y="220" text-anchor="middle" fill="#5dCAA5" font-size="12">Weekly plans</text>
<text x="213" y="234" text-anchor="middle" fill="#5dCAA5" font-size="12">Auto-renewal</text>
</g>
<g>
<rect x="276" y="185" width="100" height="62" rx="6" fill="#085041" stroke="#5dCAA5" stroke-width="0.5"/>
<text x="326" y="204" text-anchor="middle" fill="#9FE1CB" font-size="14" font-weight="500">claims.js</text>
<text x="326" y="220" text-anchor="middle" fill="#5dCAA5" font-size="12">File · payout</text>
<text x="326" y="234" text-anchor="middle" fill="#5dCAA5" font-size="12">fraud check</text>
</g>
<g>
<rect x="389" y="185" width="110" height="62" rx="6" fill="#085041" stroke="#5dCAA5" stroke-width="0.5"/>
<text x="444" y="204" text-anchor="middle" fill="#9FE1CB" font-size="14" font-weight="500">trigger-monitor</text>
<text x="444" y="220" text-anchor="middle" fill="#5dCAA5" font-size="12">Cron every 30m</text>
<text x="444" y="234" text-anchor="middle" fill="#5dCAA5" font-size="12">Auto-claim init</text>
</g>
<g>
<rect x="512" y="185" width="120" height="62" rx="6" fill="#085041" stroke="#5dCAA5" stroke-width="0.5"/>
<text x="572" y="204" text-anchor="middle" fill="#9FE1CB" font-size="14" font-weight="500">ai.js + weather.js</text>
<text x="572" y="220" text-anchor="middle" fill="#5dCAA5" font-size="12">Gemini premium</text>
<text x="572" y="234" text-anchor="middle" fill="#5dCAA5" font-size="12">behavioral score</text>
</g>

<!-- Arrows -->
<line x1="180" y1="260" x2="180" y2="290" marker-end="url(#arrow)" stroke="#9c9a92" stroke-width="1.5"/>
<line x1="500" y1="260" x2="500" y2="290" marker-end="url(#arrow)" stroke="#9c9a92" stroke-width="1.5"/>

<!-- Layer 3+4 -->
<g>
<rect x="30" y="292" width="290" height="100" rx="12" fill="#3c3489" stroke="#afa9ec" stroke-width="0.5"/>
<text x="175" y="314" text-anchor="middle" fill="#cecbf6" font-size="14" font-weight="500">MongoDB (Mongoose)</text>
</g>
<g>
<rect x="50" y="326" width="118" height="52" rx="6" fill="#3c3489" stroke="#afa9ec" stroke-width="0.5"/>
<text x="109" y="345" text-anchor="middle" fill="#cecbf6" font-size="14" font-weight="500">Workers</text>
<text x="109" y="361" text-anchor="middle" fill="#afa9ec" font-size="12">KYC · risk profile</text>
</g>
<g>
<rect x="183" y="326" width="118" height="52" rx="6" fill="#3c3489" stroke="#afa9ec" stroke-width="0.5"/>
<text x="242" y="345" text-anchor="middle" fill="#cecbf6" font-size="14" font-weight="500">Policies · Claims</text>
<text x="242" y="361" text-anchor="middle" fill="#afa9ec" font-size="12">Alerts · Logs</text>
</g>

<g>
<rect x="340" y="292" width="310" height="100" rx="12" fill="#712b13" stroke="#f0997b" stroke-width="0.5"/>
<text x="495" y="314" text-anchor="middle" fill="#f5c4b3" font-size="14" font-weight="500">AI / ML engine</text>
</g>
<g>
<rect x="358" y="326" width="128" height="52" rx="6" fill="#712b13" stroke="#f0997b" stroke-width="0.5"/>
<text x="422" y="345" text-anchor="middle" fill="#f5c4b3" font-size="14" font-weight="500">Dynamic premium</text>
<text x="422" y="361" text-anchor="middle" fill="#f0997b" font-size="12">Zone × forecast × history</text>
</g>
<g>
<rect x="501" y="326" width="130" height="52" rx="6" fill="#712b13" stroke="#f0997b" stroke-width="0.5"/>
<text x="566" y="345" text-anchor="middle" fill="#f5c4b3" font-size="14" font-weight="500">Fraud detection</text>
<text x="566" y="361" text-anchor="middle" fill="#f0997b" font-size="12">GPS · freq · history</text>
</g>

<!-- Payout formula -->
<g>
<rect x="30" y="412" width="620" height="60" rx="10" fill="#444441" stroke="#b4b2a9" stroke-width="0.5"/>
<text x="340" y="432" text-anchor="middle" fill="#d3d1c7" font-size="14" font-weight="500">Income-linked payout formula</text>
<text x="340" y="452" text-anchor="middle" fill="#b4b2a9" font-size="12">Payout = (DeclaredIncome ÷ WorkHours) × HoursLost × TierMult × BehavBonus × PlanFactor · min ₹100</text>
</g>

<line x1="200" y1="472" x2="200" y2="500" marker-end="url(#arrow)" stroke="#9c9a92" stroke-width="1.5"/>
<line x1="480" y1="472" x2="480" y2="500" marker-end="url(#arrow)" stroke="#9c9a92" stroke-width="1.5"/>

<!-- Layer 5 -->
<g>
<rect x="30" y="502" width="620" height="130" rx="12" fill="#0c447c" stroke="#85b7eb" stroke-width="0.5"/>
<text x="340" y="524" text-anchor="middle" fill="#b5d4f4" font-size="14" font-weight="500">Frontend — React 18 + Vite PWA (Vercel)</text>
</g>
<g>
<rect x="50" y="536" width="104" height="82" rx="6" fill="#0c447c" stroke="#85b7eb" stroke-width="0.5"/>
<text x="102" y="556" text-anchor="middle" fill="#b5d4f4" font-size="14" font-weight="500">LandingPage</text>
<text x="102" y="572" text-anchor="middle" fill="#85b7eb" font-size="12">Hero · plans</text>
<text x="102" y="587" text-anchor="middle" fill="#85b7eb" font-size="12">Hindi toggle</text>
<text x="102" y="602" text-anchor="middle" fill="#85b7eb" font-size="12">PWA install</text>
</g>
<g>
<rect x="165" y="536" width="104" height="82" rx="6" fill="#0c447c" stroke="#85b7eb" stroke-width="0.5"/>
<text x="217" y="556" text-anchor="middle" fill="#b5d4f4" font-size="14" font-weight="500">AuthPage</text>
<text x="217" y="572" text-anchor="middle" fill="#85b7eb" font-size="12">OTP email</text>
<text x="217" y="587" text-anchor="middle" fill="#85b7eb" font-size="12">Google SSO</text>
<text x="217" y="602" text-anchor="middle" fill="#85b7eb" font-size="12">Worker KYC</text>
</g>
<g>
<rect x="280" y="536" width="104" height="82" rx="6" fill="#0c447c" stroke="#85b7eb" stroke-width="0.5"/>
<text x="332" y="556" text-anchor="middle" fill="#b5d4f4" font-size="14" font-weight="500">Dashboard</text>
<text x="332" y="572" text-anchor="middle" fill="#85b7eb" font-size="12">Coverage status</text>
<text x="332" y="587" text-anchor="middle" fill="#85b7eb" font-size="12">Trust metrics</text>
<text x="332" y="602" text-anchor="middle" fill="#85b7eb" font-size="12">Earn history</text>
</g>
<g>
<rect x="395" y="536" width="104" height="82" rx="6" fill="#0c447c" stroke="#85b7eb" stroke-width="0.5"/>
<text x="447" y="556" text-anchor="middle" fill="#b5d4f4" font-size="14" font-weight="500">ClaimsPage</text>
<text x="447" y="572" text-anchor="middle" fill="#85b7eb" font-size="12">Trigger cards</text>
<text x="447" y="587" text-anchor="middle" fill="#85b7eb" font-size="12">1-tap claim</text>
<text x="447" y="602" text-anchor="middle" fill="#85b7eb" font-size="12">Fraud demo</text>
</g>
<g>
<rect x="510" y="536" width="120" height="82" rx="6" fill="#0c447c" stroke="#85b7eb" stroke-width="0.5"/>
<text x="570" y="556" text-anchor="middle" fill="#b5d4f4" font-size="14" font-weight="500">AdminPage</text>
<text x="570" y="572" text-anchor="middle" fill="#85b7eb" font-size="12">Loss ratio · fraud</text>
<text x="570" y="587" text-anchor="middle" fill="#85b7eb" font-size="12">Claims audit</text>
<text x="570" y="602" text-anchor="middle" fill="#85b7eb" font-size="12">Activity logs</text>
</g>

<line x1="200" y1="634" x2="200" y2="660" marker-end="url(#arrow)" stroke="#9c9a92" stroke-width="1.5"/>
<line x1="480" y1="634" x2="480" y2="660" marker-end="url(#arrow)" stroke="#9c9a92" stroke-width="1.5"/>

<!-- Layer 6 -->
<g>
<rect x="30" y="662" width="295" height="62" rx="10" fill="#27500a" stroke="#97c459" stroke-width="0.5"/>
<text x="177" y="684" text-anchor="middle" fill="#c0dd97" font-size="14" font-weight="500">Delivery worker (PWA)</text>
<text x="177" y="700" text-anchor="middle" fill="#97c459" font-size="12">Android · offline-capable · UPI payout</text>
</g>
<g>
<rect x="355" y="662" width="295" height="62" rx="10" fill="#27500a" stroke="#97c459" stroke-width="0.5"/>
<text x="502" y="684" text-anchor="middle" fill="#c0dd97" font-size="14" font-weight="500">Insurer / Admin</text>
<text x="502" y="700" text-anchor="middle" fill="#97c459" font-size="12">Loss ratios · fraud table · audit trail</text>
</g>

<!-- Legend -->
<rect x="30" y="748" width="620" height="52" rx="8" fill="#262624" stroke="rgba(222,220,209,0.3)" stroke-width="0.5"/>
<rect x="46" y="762" width="12" height="12" rx="2" fill="#633806" stroke="#ef9f27"/>
<text x="62" y="773" fill="#c2c0b6" font-size="12">External APIs</text>
<rect x="148" y="762" width="12" height="12" rx="2" fill="#085041" stroke="#5dCAA5"/>
<text x="164" y="773" fill="#c2c0b6" font-size="12">Express routes</text>
<rect x="264" y="762" width="12" height="12" rx="2" fill="#3c3489" stroke="#afa9ec"/>
<text x="280" y="773" fill="#c2c0b6" font-size="12">MongoDB models</text>
<rect x="380" y="762" width="12" height="12" rx="2" fill="#712b13" stroke="#f0997b"/>
<text x="396" y="773" fill="#c2c0b6" font-size="12">AI / ML layer</text>
<rect x="468" y="762" width="12" height="12" rx="2" fill="#0c447c" stroke="#85b7eb"/>
<text x="484" y="773" fill="#c2c0b6" font-size="12">React PWA pages</text>
<rect x="566" y="762" width="12" height="12" rx="2" fill="#27500a" stroke="#97c459"/>
<text x="582" y="773" fill="#c2c0b6" font-size="12">End users</text>
<text x="340" y="795" text-anchor="middle" fill="#c2c0b6" font-size="12">Trigger monitor runs every 30 min · Gemini 2.0 Flash for fraud + premium · TanStack React Query for offline caching</text>
</svg>
